<svg id="visual" viewBox="0 0 900 600" width="900" height="600" xmlns="http://www.w3.org/2000/svg" xmlns:xlink="http://www.w3.org/1999/xlink" version="1.1"><rect x="0" y="0" width="900" height="600" fill="#001220"></rect><defs><linearGradient id="grad1_0" x1="33.3%" y1="100%" x2="100%" y2="0%"><stop offset="20%" stop-color="#fbae3c" stop-opacity="1"></stop><stop offset="80%" stop-color="#fbae3c" stop-opacity="1"></stop></linearGradient></defs><defs><linearGradient id="grad1_1" x1="33.3%" y1="100%" x2="100%" y2="0%"><stop offset="20%" stop-color="#fbae3c" stop-opacity="1"></stop><stop offset="80%" stop-color="#f17c53" stop-opacity="1"></stop></linearGradient></defs><defs><linearGradient id="grad1_2" x1="33.3%" y1="100%" x2="100%" y2="0%"><stop offset="20%" stop-color="#cc5867" stop-opacity="1"></stop><stop offset="80%" stop-color="#f17c53" stop-opacity="1"></stop></linearGradient></defs><defs><linearGradient id="grad1_3" x1="33.3%" y1="100%" x2="100%" y2="0%"><stop offset="20%" stop-color="#cc5867" stop-opacity="1"></stop><stop offset="80%" stop-color="#96446e" stop-opacity="1"></stop></linearGradient></defs><defs><linearGradient id="grad1_4" x1="33.3%" y1="100%" x2="100%" y2="0%"><stop offset="20%" stop-color="#593762" stop-opacity="1"></stop><stop offset="80%" stop-color="#96446e" stop-opacity="1"></stop></linearGradient></defs><defs><linearGradient id="grad1_5" x1="33.3%" y1="100%" x2="100%" y2="0%"><stop offset="20%" stop-color="#593762" stop-opacity="1"></stop><stop offset="80%" stop-color="#232745" stop-opacity="1"></stop></linearGradient></defs><defs><linearGradient id="grad1_6" x1="33.3%" y1="100%" x2="100%" y2="0%"><stop offset="20%" stop-color="#001220" stop-opacity="1"></stop><stop offset="80%" stop-color="#232745" stop-opacity="1"></stop></linearGradient></defs><defs><linearGradient id="grad2_0" x1="0%" y1="100%" x2="66.7%" y2="0%"><stop offset="20%" stop-color="#fbae3c" stop-opacity="1"></stop><stop offset="80%" stop-color="#fbae3c" stop-opacity="1"></stop></linearGradient></defs><defs><linearGradient id="grad2_1" x1="0%" y1="100%" x2="66.7%" y2="0%"><stop offset="20%" stop-color="#f17c53" stop-opacity="1"></stop><stop offset="80%" stop-color="#fbae3c" stop-opacity="1"></stop></linearGradient></defs><defs><linearGradient id="grad2_2" x1="0%" y1="100%" x2="66.7%" y2="0%"><stop offset="20%" stop-color="#f17c53" stop-opacity="1"></stop><stop offset="80%" stop-color="#cc5867" stop-opacity="1"></stop></linearGradient></defs><defs><linearGradient id="grad2_3" x1="0%" y1="100%" x2="66.7%" y2="0%"><stop offset="20%" stop-color="#96446e" stop-opacity="1"></stop><stop offset="80%" stop-color="#cc5867" stop-opacity="1"></stop></linearGradient></defs><defs><linearGradient id="grad2_4" x1="0%" y1="100%" x2="66.7%" y2="0%"><stop offset="20%" stop-color="#96446e" stop-opacity="1"></stop><stop offset="80%" stop-color="#593762" stop-opacity="1"></stop></linearGradient></defs><defs><linearGradient id="grad2_5" x1="0%" y1="100%" x2="66.7%" y2="0%"><stop offset="20%" stop-color="#232745" stop-opacity="1"></stop><stop offset="80%" stop-color="#593762" stop-opacity="1"></stop></linearGradient></defs><defs><linearGradient id="grad2_6" x1="0%" y1="100%" x2="66.7%" y2="0%"><stop offset="20%" stop-color="#232745" stop-opacity="1"></stop><stop offset="80%" stop-color="#001220" stop-opacity="1"></stop></linearGradient></defs><g transform="translate(900, 600)"><path d="M-351.5 0C-352.1 -50.6 -352.7 -101.3 -324.8 -134.5C-296.8 -167.8 -240.3 -183.7 -200.8 -200.8C-161.3 -217.9 -138.9 -236.1 -108.3 -261.5C-77.7 -286.8 -38.8 -319.2 0 -351.5L0 0Z" fill="#0f1d33"></path><path d="M-301.3 0C-301.8 -43.4 -302.4 -86.8 -278.4 -115.3C-254.4 -143.8 -206 -157.5 -172.1 -172.1C-138.3 -186.8 -119.1 -202.4 -92.8 -224.1C-66.6 -245.8 -33.3 -273.6 0 -301.3L0 0Z" fill="#3d3056"></path><path d="M-251.1 0C-251.5 -36.2 -252 -72.3 -232 -96.1C-212 -119.9 -171.6 -131.2 -143.4 -143.4C-115.2 -155.6 -99.2 -168.7 -77.4 -186.8C-55.5 -204.8 -27.7 -228 0 -251.1L0 0Z" fill="#773d6b"></path><path d="M-200.9 0C-201.2 -28.9 -201.6 -57.9 -185.6 -76.9C-169.6 -95.9 -137.3 -105 -114.8 -114.8C-92.2 -124.5 -79.4 -134.9 -61.9 -149.4C-44.4 -163.9 -22.2 -182.4 0 -200.9L0 0Z" fill="#b34c6d"></path><path d="M-150.7 0C-150.9 -21.7 -151.2 -43.4 -139.2 -57.7C-127.2 -71.9 -103 -78.7 -86.1 -86.1C-69.1 -93.4 -59.5 -101.2 -46.4 -112.1C-33.3 -122.9 -16.6 -136.8 0 -150.7L0 0Z" fill="#e1685e"></path><path d="M-100.4 0C-100.6 -14.5 -100.8 -28.9 -92.8 -38.4C-84.8 -47.9 -68.7 -52.5 -57.4 -57.4C-46.1 -62.3 -39.7 -67.5 -30.9 -74.7C-22.2 -81.9 -11.1 -91.2 0 -100.4L0 0Z" fill="#f99447"></path><path d="M-50.2 0C-50.3 -7.2 -50.4 -14.5 -46.4 -19.2C-42.4 -24 -34.3 -26.2 -28.7 -28.7C-23 -31.1 -19.8 -33.7 -15.5 -37.4C-11.1 -41 -5.5 -45.6 0 -50.2L0 0Z" fill="#fbae3c"></path></g><g transform="translate(0, 0)"><path d="M351.5 0C321.5 34.4 291.5 68.9 279.9 116C268.3 163 275.1 222.7 248.6 248.6C222 274.5 162.2 266.6 115.2 278.1C68.2 289.6 34.1 320.6 0 351.5L0 0Z" fill="#0f1d33"></path><path d="M301.3 0C275.6 29.5 249.9 59.1 239.9 99.4C230 139.7 235.8 190.9 213.1 213.1C190.3 235.3 139 228.5 98.7 238.4C58.5 248.2 29.2 274.8 0 301.3L0 0Z" fill="#3d3056"></path><path d="M251.1 0C229.7 24.6 208.2 49.2 200 82.8C191.7 116.4 196.5 159.1 177.6 177.6C158.6 196 115.8 190.4 82.3 198.6C48.7 206.9 24.4 229 0 251.1L0 0Z" fill="#773d6b"></path><path d="M200.9 0C183.7 19.7 166.6 39.4 160 66.3C153.3 93.2 157.2 127.3 142 142C126.9 156.8 92.7 152.3 65.8 158.9C39 165.5 19.5 183.2 0 200.9L0 0Z" fill="#b34c6d"></path><path d="M150.7 0C137.8 14.8 124.9 29.5 120 49.7C115 69.9 117.9 95.4 106.5 106.5C95.2 117.6 69.5 114.2 49.4 119.2C29.2 124.1 14.6 137.4 0 150.7L0 0Z" fill="#e1685e"></path><path d="M100.4 0C91.9 9.8 83.3 19.7 80 33.1C76.7 46.6 78.6 63.6 71 71C63.4 78.4 46.3 76.2 32.9 79.5C19.5 82.7 9.7 91.6 0 100.4L0 0Z" fill="#f99447"></path><path d="M50.2 0C45.9 4.9 41.6 9.8 40 16.6C38.3 23.3 39.3 31.8 35.5 35.5C31.7 39.2 23.2 38.1 16.5 39.7C9.7 41.4 4.9 45.8 0 50.2L0 0Z" fill="#fbae3c"></path></g></svg>